<?xml version="1.0" standalone="no"?>
<!DOCTYPE svg PUBLIC "-//W3C//DTD SVG 20010904//EN"
 "http://www.w3.org/TR/2001/REC-SVG-20010904/DTD/svg10.dtd">
<svg version="1.0" xmlns="http://www.w3.org/2000/svg"
 width="2000.000000pt" height="1500.000000pt" viewBox="0 0 2000.000000 1500.000000"
 preserveAspectRatio="xMidYMid meet">

<g transform="translate(0.000000,1500.000000) scale(0.100000,-0.100000)"
fill="#000000" stroke="none">
<path d="M0 7500 l0 -7500 10000 0 10000 0 0 7500 0 7500 -10000 0 -10000 0 0
-7500z m10441 -1304 l-85 -85 65 -4 c63 -3 63 -3 -16 -5 l-80 -2 80 80 80 80
-93 0 -92 0 -3 -187 -2 -188 -3 198 -2 197 117 0 118 0 -84 -84z m1290 74 c10
-6 26 -24 34 -41 15 -29 15 -31 -7 -49 -13 -11 -29 -19 -36 -20 -7 0 -1 11 14
24 27 23 27 24 11 49 -19 29 -63 42 -114 32 -27 -5 -38 -13 -49 -40 -23 -56
-7 -81 83 -122 102 -46 123 -66 123 -116 0 -29 -7 -45 -29 -68 -25 -24 -37
-29 -81 -29 -56 0 -104 20 -120 49 -18 35 -10 47 9 15 24 -39 77 -59 129 -49
46 8 69 28 77 66 10 46 -15 72 -110 118 -57 27 -89 49 -96 65 -16 34 -3 92 24
111 25 17 109 20 138 5z m1603 -27 c82 -58 105 -167 54 -254 -31 -53 -84 -85
-156 -95 l-52 -7 0 198 0 198 57 -6 c40 -4 69 -15 97 -34z m-719 -37 c19 -8
35 -20 35 -26 0 -7 -9 -5 -22 4 -36 25 -111 21 -145 -8 -25 -22 -28 -31 -31
-105 -5 -98 8 -134 53 -155 41 -20 66 -20 110 -2 40 17 48 5 10 -12 -36 -16
-100 -15 -134 3 -66 34 -82 207 -25 274 34 41 91 51 149 27z m1080 -10 c14 -9
25 -20 25 -25 0 -12 -139 -125 -146 -119 -2 3 25 29 61 58 36 30 65 57 65 61
0 33 -125 40 -158 9 -29 -28 -45 -94 -38 -159 8 -69 20 -90 63 -108 36 -15
107 -10 119 8 3 5 10 9 17 9 6 0 4 -7 -5 -17 -22 -21 -114 -28 -148 -11 -44
23 -62 73 -58 163 5 92 23 130 72 145 41 12 101 6 131 -14z m602 -1 c13 -9 23
-19 23 -23 0 -11 -140 -125 -146 -120 -2 3 21 27 53 53 32 27 63 53 68 57 19
17 -27 38 -82 38 -43 0 -59 -5 -78 -24 -42 -42 -46 -182 -7 -236 33 -43 81
-47 172 -13 12 4 12 2 -2 -12 -20 -22 -102 -31 -140 -16 -46 18 -68 65 -68
149 0 91 18 138 62 157 39 18 110 13 145 -10z m516 14 c31 -8 42 -18 58 -52
33 -73 21 -204 -21 -242 -24 -22 -105 -31 -142 -16 -46 18 -68 65 -68 149 0
92 18 138 62 157 40 17 61 18 111 4z m652 -13 c14 -9 25 -21 25 -26 0 -12
-131 -122 -137 -116 -3 3 10 18 28 33 18 15 47 40 64 56 29 26 29 28 11 42
-32 24 -110 19 -143 -9 -25 -22 -28 -31 -31 -105 -5 -98 8 -134 53 -155 41
-20 66 -20 112 -1 45 19 56 12 14 -9 -38 -20 -103 -21 -140 -1 -16 8 -34 29
-42 47 -19 44 -18 165 1 203 30 60 124 81 185 41z m-4865 -97 c0 -81 4 -120
16 -145 31 -66 126 -67 160 -2 9 18 18 76 23 146 l8 117 1 -100 c2 -114 -9
-167 -43 -201 -44 -44 -137 -25 -165 33 -17 37 -27 263 -11 263 7 0 11 -36 11
-111z m330 -39 l0 -150 80 0 c47 0 80 -4 80 -10 0 -6 -37 -10 -90 -10 l-90 0
0 160 c0 100 4 160 10 160 6 0 10 -57 10 -150z m325 -150 c50 0 85 -4 85 -10
0 -6 -37 -10 -90 -10 l-90 0 2 163 2 162 3 -152 4 -153 84 0z m773 293 l-58
-4 0 -149 c0 -93 -4 -150 -10 -150 -6 0 -10 57 -10 150 l0 149 -57 4 c-32 2
-2 3 67 3 69 0 99 -1 68 -3z m282 -143 c34 -80 64 -151 67 -157 4 -10 -19 -13
-96 -13 -125 0 -136 18 -13 22 l88 3 -55 128 c-29 71 -57 125 -61 120 -4 -4
-24 -48 -45 -98 -70 -167 -75 -178 -81 -172 -3 3 25 75 62 161 36 86 68 155
70 154 1 -2 30 -68 64 -148z m583 143 l-63 -4 -2 -157 -2 -157 -6 155 -5 155
-60 6 c-39 4 -15 6 70 5 72 0 102 -1 68 -3z m943 -128 c31 -74 60 -135 63
-135 3 0 21 37 40 83 63 149 82 190 87 184 6 -5 -111 -286 -125 -299 -6 -7
-131 274 -131 295 0 20 13 -4 66 -128z m584 -15 l0 -150 80 0 c49 0 80 -4 80
-10 0 -7 -32 -10 -87 -8 l-88 3 -3 158 c-2 102 1 157 8 157 6 0 10 -54 10
-150z m713 137 c45 -19 60 -41 60 -89 0 -33 -6 -47 -27 -65 -40 -34 -54 -28
-16 7 26 24 31 35 28 66 -4 51 -38 74 -116 81 l-62 6 0 -212 c0 -139 -3 -210
-10 -206 -6 4 -10 87 -10 216 l0 209 60 0 c33 0 75 -6 93 -13z m613 -20 c32
-37 30 -62 -6 -98 l-30 -30 36 -70 c19 -39 33 -76 32 -81 -2 -6 -22 27 -44 73
-41 84 -41 84 -20 98 29 21 36 32 36 63 0 37 -34 58 -104 65 l-55 6 -4 -159
-3 -159 -2 164 -2 163 71 -4 c63 -3 74 -7 95 -31z"/>
<path d="M13190 6086 l0 -176 40 0 c48 0 85 17 121 57 39 41 49 66 49 118 0
96 -63 165 -157 173 l-53 4 0 -176z"/>
<path d="M14685 6176 c-42 -42 -46 -182 -7 -236 24 -32 76 -45 124 -30 56 16
73 49 72 139 0 116 -26 150 -112 151 -43 0 -58 -5 -77 -24z"/>
</g>
</svg>
