<svg xmlns="http://www.w3.org/2000/svg" version="1.1" xmlns:xlink="http://www.w3.org/1999/xlink" xmlns:svgjs="http://svgjs.dev/svgjs" width="2000" height="661" viewBox="0 0 2000 661"><g transform="matrix(1,0,0,1,-1.2121212121212466,-0.5110407637554317)"><svg viewBox="0 0 396 131" data-background-color="#0a1627" preserveAspectRatio="xMidYMid meet" height="661" width="2000" xmlns="http://www.w3.org/2000/svg" xmlns:xlink="http://www.w3.org/1999/xlink"><g id="tight-bounds" transform="matrix(1,0,0,1,0.2400000000000091,0.1012803934220301)"><svg viewBox="0 0 395.52 130.7974392131559" height="130.7974392131559" width="395.52"><g><svg viewBox="0 0 665.2945018634052 220.01116799738466" height="130.7974392131559" width="395.52"><g transform="matrix(1,0,0,1,269.7745018634053,33.71458859829305)"><svg viewBox="0 0 395.52 152.58199080079856" height="152.58199080079856" width="395.52"><g id="textblocktransform"><svg viewBox="0 0 395.52 152.58199080079856" height="152.58199080079856" width="395.52" id="textblock"><g><svg viewBox="0 0 395.52 105.39685073031706" height="105.39685073031706" width="395.52"><g transform="matrix(1,0,0,1,0,0)"><svg width="395.52" viewBox="0.4399999976158142 -36.040000915527344 137.0500030517578 36.53000259399414" height="105.39685073031706" data-palette-color="#cc1212"><path d="M26.42 0L23.51-8.28 9.74-8.28 6.86 0 0.44 0 13.87-35.55 19.41-35.55 32.86 0 26.42 0ZM16.63-28L11.47-13.26 21.78-13.26 16.63-28ZM36.89-35.55L44.89-35.55 55.15-8.3 65.38-35.55 73.36-35.55 73.36 0 67.21 0 67.21-11.72 67.82-27.39 57.32 0 52.9 0 42.43-27.37 43.04-11.72 43.04 0 36.89 0 36.89-35.55ZM109.03-18.82L109.03-16.85Q109.03-11.62 107.22-7.68 105.41-3.74 102.06-1.62 98.7 0.49 94.33 0.49L94.33 0.49Q90.01 0.49 86.63-1.62 83.25-3.74 81.4-7.64 79.56-11.55 79.54-16.65L79.54-16.65 79.54-18.65Q79.54-23.85 81.38-27.83 83.22-31.81 86.58-33.92 89.94-36.04 94.28-36.04 98.63-36.04 101.98-33.95 105.34-31.86 107.17-27.94 109-24.02 109.03-18.82L109.03-18.82ZM102.85-16.85L102.85-18.7Q102.85-24.61 100.62-27.76 98.38-30.91 94.28-30.91L94.28-30.91Q90.28-30.91 88.02-27.77 85.76-24.63 85.71-18.9L85.71-18.9 85.71-16.85Q85.71-10.99 88-7.79 90.28-4.59 94.33-4.59L94.33-4.59Q98.43-4.59 100.64-7.71 102.85-10.84 102.85-16.85L102.85-16.85ZM121.35-35.55L121.35-4.93 137.49-4.93 137.49 0 115.18 0 115.18-35.55 121.35-35.55Z" opacity="1" transform="matrix(1,0,0,1,0,0)" fill="#cc1212" class="undefined-text-0" data-fill-palette-color="primary" id="text-0"></path></svg></g></svg></g><g transform="matrix(1,0,0,1,75.54432,130.2785176633274)"><svg viewBox="0 0 244.43135999999998 22.30347313747117" height="22.30347313747117" width="244.43135999999998"><g transform="matrix(1,0,0,1,0,0)"><svg width="244.43135999999998" viewBox="4.949999809265137 -35.5 498.5999755859375 45.5" height="22.30347313747117" data-palette-color="#c1c1c1"><path d="M22.9-19.8L22.9-18.3 8.05-18.3 23.35-33.5 6.45-33.5 6.45 0 4.95 0 4.95-35 27-35 11.7-19.8 22.9-19.8ZM31.75-29L33.25-29 33.25-14.5Q33.25-7.05 35.62-4.03 38-1 42.15-1 46.3-1 48.67-4.03 51.05-7.05 51.05-14.5L51.05-14.5 51.05-29 52.55-29 52.55-14.5Q52.55 0.5 42.15 0.5 31.75 0.5 31.75-14.5L31.75-14.5 31.75-29ZM63.05-1.5L78.25-1.5 78.25 0 61.55 0 61.55-29 63.05-29 63.05-1.5ZM85.49-1.5L100.69-1.5 100.69 0 83.99 0 83.99-29 85.49-29 85.49-1.5ZM120.34-26.35L120.34-26.35Q120.34-31.2 122.79-33.35 125.24-35.5 130.74-35.5L130.74-35.5Q134.59-35.5 136.94-33.5 139.29-31.5 140.34-27.4L140.34-27.4 135.69-23.9 133.24-23.9 138.64-27.95Q137.59-31.3 135.61-32.65 133.64-34 130.74-34L130.74-34Q128.74-34 127.36-33.75 125.99-33.5 124.61-32.77 123.24-32.05 122.54-30.45 121.84-28.85 121.84-26.35L121.84-26.35Q121.84-24.15 123.86-22.45 125.89-20.75 128.79-19.55 131.69-18.35 134.61-17.1 137.54-15.85 139.56-13.9 141.59-11.95 141.59-9.4L141.59-9.4Q141.59-4.4 139.11-1.95 136.64 0.5 130.64 0.5L130.64 0.5Q125.74 0.5 122.94-1.48 120.14-3.45 119.09-7.6L119.09-7.6 120.49-8.2Q121.49-4.15 123.91-2.58 126.34-1 130.64-1L130.64-1Q135.44-1 137.76-2.85 140.09-4.7 140.09-9.4L140.09-9.4Q140.09-11.6 138.06-13.3 136.04-15 133.11-16.2 130.19-17.4 127.29-18.65 124.39-19.9 122.36-21.85 120.34-23.8 120.34-26.35ZM145.49-29L167.99-29 167.99-27.5 157.49-27.5 157.49 0 155.99 0 155.99-27.5 145.49-27.5 145.49-29ZM176.38 0L176.38-1.5 192.68-1.5 182.43-25.65 171.53 0 169.93 0 182.43-29.5 194.93 0 176.38 0ZM202.08-3.05Q199.38-6.6 199.38-14.5 199.38-22.4 202.08-25.95 204.78-29.5 211.03-29.5 217.28-29.5 220.03-26.05L220.03-26.05 218.93-25.05Q216.73-28 211.03-28L211.03-28Q208.53-28 206.83-27.48 205.13-26.95 203.71-25.53 202.28-24.1 201.58-21.38 200.88-18.65 200.88-14.5 200.88-10.35 201.58-7.63 202.28-4.9 203.71-3.48 205.13-2.05 206.83-1.53 208.53-1 211.03-1L211.03-1Q216.73-1 218.93-3.95L218.93-3.95 220.03-2.95Q217.28 0.5 211.03 0.5 204.78 0.5 202.08-3.05ZM223.73-29L246.23-29 246.23-27.5 235.73-27.5 235.73 0 234.23 0 234.23-27.5 223.73-27.5 223.73-29ZM271.72 0L271.72 0 266.92 0 266.92-35 271.72-35Q278.92-35 283.92-29.7 288.92-24.4 288.92-17.5 288.92-10.6 283.92-5.3 278.92 0 271.72 0ZM268.42-1.5L271.72-1.5Q278.27-1.5 282.85-6.33 287.42-11.15 287.42-17.5 287.42-23.85 282.85-28.68 278.27-33.5 271.72-33.5L271.72-33.5 268.42-33.5 268.42-1.5ZM314.67-3.95L315.77-2.95Q313.02 0.5 306.77 0.5 300.52 0.5 297.82-3.05 295.12-6.6 295.12-14.5 295.12-22.4 297.82-25.95 300.52-29.5 306.77-29.5L306.77-29.5Q314.02-29.5 316.62-24.75L316.62-24.75 304.37-14.5 302.02-14.5 314.67-25.05Q312.47-28 306.77-28L306.77-28Q304.27-28 302.57-27.48 300.87-26.95 299.44-25.53 298.02-24.1 297.32-21.38 296.62-18.65 296.62-14.5 296.62-10.35 297.32-7.63 298.02-4.9 299.44-3.48 300.87-2.05 302.57-1.53 304.27-1 306.77-1L306.77-1Q312.47-1 314.67-3.95L314.67-3.95ZM343.32-29L344.92-29 332.42 0.5 319.92-29 321.52-29 332.42-3.35 343.32-29ZM368.87-3.95L369.96-2.95Q367.21 0.5 360.96 0.5 354.71 0.5 352.01-3.05 349.31-6.6 349.31-14.5 349.31-22.4 352.01-25.95 354.71-29.5 360.96-29.5L360.96-29.5Q368.21-29.5 370.81-24.75L370.81-24.75 358.56-14.5 356.21-14.5 368.87-25.05Q366.67-28 360.96-28L360.96-28Q358.46-28 356.76-27.48 355.06-26.95 353.64-25.53 352.21-24.1 351.51-21.38 350.81-18.65 350.81-14.5 350.81-10.35 351.51-7.63 352.21-4.9 353.64-3.48 355.06-2.05 356.76-1.53 358.46-1 360.96-1L360.96-1Q366.67-1 368.87-3.95L368.87-3.95ZM379.46-1.5L394.66-1.5 394.66 0 377.96 0 377.96-29 379.46-29 379.46-1.5ZM415.01-27.48Q413.31-28 410.81-28 408.31-28 406.61-27.48 404.91-26.95 403.48-25.53 402.06-24.1 401.36-21.38 400.66-18.65 400.66-14.5 400.66-10.35 401.36-7.63 402.06-4.9 403.48-3.48 404.91-2.05 406.61-1.53 408.31-1 410.81-1 413.31-1 415.01-1.53 416.71-2.05 418.13-3.48 419.56-4.9 420.26-7.63 420.96-10.35 420.96-14.5 420.96-18.65 420.26-21.38 419.56-24.1 418.13-25.53 416.71-26.95 415.01-27.48ZM419.76-3.05Q417.06 0.5 410.81 0.5 404.56 0.5 401.86-3.05 399.16-6.6 399.16-14.5 399.16-22.4 401.86-25.95 404.56-29.5 410.81-29.5 417.06-29.5 419.76-25.95 422.46-22.4 422.46-14.5 422.46-6.6 419.76-3.05ZM445.91-12.4L443.11-10.8 442.36-12.1 445.16-13.7Q448.61-15.6 448.61-19.75L448.61-19.75Q448.61-27.5 436.81-27.5L436.81-27.5 432.21-27.5 432.21 10 430.71 10 430.71-29 436.81-29Q443.41-29 446.76-26.58 450.11-24.15 450.11-19.75L450.11-19.75Q450.11-14.75 445.91-12.4L445.91-12.4ZM475.45-3.95L476.55-2.95Q473.8 0.5 467.55 0.5 461.3 0.5 458.6-3.05 455.9-6.6 455.9-14.5 455.9-22.4 458.6-25.95 461.3-29.5 467.55-29.5L467.55-29.5Q474.8-29.5 477.4-24.75L477.4-24.75 465.15-14.5 462.8-14.5 475.45-25.05Q473.25-28 467.55-28L467.55-28Q465.05-28 463.35-27.48 461.65-26.95 460.23-25.53 458.8-24.1 458.1-21.38 457.4-18.65 457.4-14.5 457.4-10.35 458.1-7.63 458.8-4.9 460.23-3.48 461.65-2.05 463.35-1.53 465.05-1 467.55-1L467.55-1Q473.25-1 475.45-3.95L475.45-3.95ZM496.75-14.55L496.75-14.55 503.55 0 501.9 0 494.9-15Q495-15.05 495.78-15.43 496.55-15.8 496.85-15.98 497.15-16.15 497.85-16.6 498.55-17.05 498.9-17.48 499.25-17.9 499.68-18.48 500.1-19.05 500.3-19.78 500.5-20.5 500.5-21.35L500.5-21.35Q500.5-24.5 497.5-26 494.5-27.5 490.05-27.5L490.05-27.5 486.05-27.5 486.05 0 484.55 0 484.55-29 490.05-29Q495.95-29 498.98-26.95 502-24.9 502-21.35L502-21.35Q502-19.05 500.45-17.28 498.9-15.5 496.75-14.55Z" opacity="1" transform="matrix(1,0,0,1,0,0)" fill="#c1c1c1" class="undefined-text-1" data-fill-palette-color="secondary" id="text-1"></path></svg></g></svg></g></svg></g></svg></g><g><svg viewBox="0 0 220.01116799738466 220.01116799738466" height="220.01116799738466" width="220.01116799738466"><g><svg></svg></g><g id="icon-0"><svg viewBox="0 0 220.01116799738466 220.01116799738466" height="220.01116799738466" width="220.01116799738466"><g><path d="M0 110.006c0-60.754 49.251-110.006 110.006-110.006 60.754 0 110.006 49.251 110.005 110.006 0 60.754-49.251 110.006-110.005 110.005-60.754 0-110.006-49.251-110.006-110.005zM110.006 210.506c55.505 0 100.501-44.996 100.5-100.5 0-55.505-44.996-100.501-100.5-100.501-55.505 0-100.501 44.996-100.501 100.501 0 55.505 44.996 100.501 100.501 100.5z" data-fill-palette-color="accent" fill="#cc1212" stroke="transparent"></path></g><g transform="matrix(1,0,0,1,53.063827267601695,53.063827267601695)"><svg viewBox="0 0 113.88351346218127 113.88351346218127" height="113.88351346218127" width="113.88351346218127"><g><svg xmlns="http://www.w3.org/2000/svg" xmlns:xlink="http://www.w3.org/1999/xlink" version="1.0" x="0" y="0" viewBox="10 10 80 80" enable-background="new 0 0 100 100" xml:space="preserve" height="113.88351346218127" width="113.88351346218127" class="icon-s-0" data-fill-palette-color="accent" id="s-0"><path fill="none" stroke="#CC1212" stroke-linecap="round" stroke-linejoin="round" stroke-miterlimit="10" d="M78.33 56.667l1.945 15.555L78.33 56.667z"></path><path fill="none" stroke="#CC1212" stroke-linecap="round" stroke-linejoin="round" stroke-miterlimit="10" d="M75.689 22.862v-3.157C75.021 14.236 70.37 10 64.722 10c-5.647 0-10.298 4.235-10.968 9.704v3.157c-1.433 0.509-2.461 1.859-2.461 3.461 0 3.145 1.596 5.689 3.582 5.778 1.828 5.631 5.549 9.496 9.847 9.496 4.297 0 8.016-3.864 9.846-9.496 1.986-0.089 3.583-2.633 3.583-5.778C78.15 24.721 77.118 23.371 75.689 22.862z"></path><path fill="none" stroke="#CC1212" stroke-linecap="round" stroke-linejoin="round" stroke-miterlimit="10" d="M63.359 24.58h-6.806v1.945c0 1.071 0.877 1.947 1.946 1.947h2.917c1.069 0 1.942-0.876 1.942-1.947V24.58z"></path><path fill="none" stroke="#CC1212" stroke-linecap="round" stroke-linejoin="round" stroke-miterlimit="10" d="M56.554 24.58l-2.8-1.718L56.554 24.58z"></path><path fill="none" stroke="#CC1212" stroke-linecap="round" stroke-linejoin="round" stroke-miterlimit="10" d="M66.081 24.58h6.806v1.945c0 1.071-0.875 1.947-1.944 1.947h-2.916c-1.071 0-1.945-0.876-1.945-1.947V24.58z"></path><path fill="none" stroke="#CC1212" stroke-linecap="round" stroke-linejoin="round" stroke-miterlimit="10" d="M72.889 24.58l2.801-1.718L72.889 24.58z"></path><path fill="none" stroke="#CC1212" stroke-linecap="round" stroke-linejoin="round" stroke-miterlimit="10" d="M63.359 24.58h2.722H63.359z"></path><path fill="none" stroke="#CC1212" stroke-linecap="round" stroke-linejoin="round" stroke-miterlimit="10" d="M62.292 35.745c1.342 1.341 3.519 1.341 4.86 0C65.811 37.086 63.634 37.086 62.292 35.745z"></path><path fill="none" stroke="#CC1212" stroke-linecap="round" stroke-linejoin="round" stroke-miterlimit="10" d="M75.689 22.862c-3.038 0-5.788-1.231-7.78-3.221l0 0c-2.147-2.147-4.961-3.222-7.777-3.222-3.522 0-6.378 2.885-6.378 6.443v-3.157C54.424 14.236 59.074 10 64.722 10c5.648 0 10.299 4.235 10.968 9.704V22.862z"></path><path fill="none" stroke="#CC1212" stroke-linecap="round" stroke-linejoin="round" stroke-miterlimit="10" d="M64.722 48.889c3.219 0 6.066-1.571 7.834-3.981-0.535-0.258-1.031-0.585-1.446-1.002-0.941-0.937-1.52-2.235-1.52-3.668v-0.429c-1.469 1.139-3.119 1.788-4.868 1.788-1.748 0-3.398-0.649-4.866-1.788v0.429c0 1.433-0.583 2.732-1.521 3.668-0.417 0.417-0.911 0.744-1.449 0.999C58.656 47.317 61.503 48.889 64.722 48.889z"></path><path fill="none" stroke="#CC1212" stroke-linecap="round" stroke-linejoin="round" stroke-miterlimit="10" d="M72.792 45.033c-0.084-0.034-0.155-0.089-0.236-0.125-1.768 2.41-4.615 3.981-7.834 3.981s-6.065-1.571-7.836-3.984c-0.078 0.04-0.151 0.092-0.236 0.128l-3.415 1.415c2.415 3.8 6.651 6.33 11.486 6.33 4.837 0 9.072-2.529 11.489-6.33L72.792 45.033z"></path><path fill="none" stroke="#CC1212" stroke-linecap="round" stroke-linejoin="round" stroke-miterlimit="10" d="M58.889 85.556H10v2.224C10 89.002 11.001 90 12.223 90h44.444c1.222 0 2.222-0.998 2.222-2.221V85.556z"></path><path fill="none" stroke="#CC1212" stroke-linecap="round" stroke-linejoin="round" stroke-miterlimit="10" d="M58.889 82.219c0 1.833-1.5 3.333-3.333 3.333H13.335c-1.834 0-3.335-1.5-3.335-3.333V57.774c0-1.833 1.5-3.335 3.335-3.335h42.221c1.833 0 3.333 1.502 3.333 3.335V82.219z"></path><path fill="none" stroke="#CC1212" stroke-linecap="round" stroke-linejoin="round" stroke-miterlimit="10" d="M55.556 54.439c1.833 0 3.333 1.502 3.333 3.335v14.447H90l-0.004-14.826c0-2.469-1-4.704-2.614-6.321L76.21 46.448c-2.417 3.8-6.652 6.33-11.489 6.33-4.835 0-9.071-2.529-11.486-6.33l-11.172 4.626c-0.938 0.938-1.66 2.089-2.107 3.365H55.556z"></path><circle fill="none" stroke="#CC1212" stroke-linecap="round" stroke-linejoin="round" stroke-miterlimit="10" cx="34.444" cy="70" r="3.3"></circle></svg></g></svg></g></svg></g></svg></g></svg></g><defs></defs></svg><rect width="395.52" height="130.7974392131559" fill="none" stroke="none" visibility="hidden"></rect></g></svg></g></svg>